<svg width="18" height="18" viewBox="0 0 18 18" fill="none" xmlns="http://www.w3.org/2000/svg">
<path d="M5.25 4.625C5.25 3.88332 5.46993 3.1583 5.88199 2.54161C6.29404 1.92493 6.87971 1.44428 7.56494 1.16045C8.25016 0.876625 9.00416 0.802362 9.73159 0.947057C10.459 1.09175 11.1272 1.4489 11.6517 1.97335C12.1761 2.4978 12.5333 3.16598 12.6779 3.89341C12.8226 4.62084 12.7484 5.37484 12.4645 6.06006C12.1807 6.74529 11.7001 7.33096 11.0834 7.74301C10.4667 8.15507 9.74168 8.375 9 8.375C8.00544 8.375 7.05161 7.97991 6.34835 7.27665C5.64509 6.57339 5.25 5.61956 5.25 4.625ZM15.25 17.125H2.75C2.25272 17.125 1.77581 16.9275 1.42417 16.5758C1.07254 16.2242 0.875 15.7473 0.875 15.25C0.875 13.7582 1.46763 12.3274 2.52252 11.2725C3.57742 10.2176 5.00816 9.625 6.5 9.625H11.5C12.9918 9.625 14.4226 10.2176 15.4775 11.2725C16.5324 12.3274 17.125 13.7582 17.125 15.25C17.125 15.7473 16.9275 16.2242 16.5758 16.5758C16.2242 16.9275 15.7473 17.125 15.25 17.125Z" fill="#000"/>
</svg>
