<svg width="20" height="20" viewBox="0 0 20 20" fill="none" xmlns="http://www.w3.org/2000/svg">
<path d="M3.81849 6.51286C3.86565 6.79708 3.97526 6.97679 4.0836 7.09022C4.34105 8.80575 5.77491 10.3976 7.0864 10.3976C8.61457 10.3976 10.0064 8.67447 10.274 7.09405C10.3849 6.98189 10.4958 6.80091 10.5442 6.51286C10.6309 6.19168 10.743 5.63343 10.5468 5.37088C10.5366 5.35813 10.5251 5.34411 10.5149 5.33392C10.6997 4.65969 10.9329 3.26535 10.0981 2.31582C10.0242 2.2215 9.55518 1.66198 8.55467 1.36629L8.07672 1.20187C7.28905 0.958437 6.79453 0.903632 6.77287 0.901083C6.73718 0.898534 6.70022 0.901083 6.66581 0.910005C6.63904 0.917652 6.54472 0.943143 6.47208 0.932947C6.28345 0.906181 6.0005 1.00305 5.95079 1.02216C5.88579 1.04893 4.36017 1.65943 3.89752 3.08054C3.85418 3.19525 3.66937 3.79938 3.91536 5.28039C3.8784 5.30588 3.84526 5.33646 3.81722 5.37343C3.61839 5.63343 3.73055 6.19168 3.81849 6.51286Z" fill="#000"/>
<path d="M9.92098 17.326C9.63931 17.1679 9.33342 17.0163 9.00714 16.8722C8.8491 16.8021 8.6885 16.7359 8.52919 16.6734C8.40428 16.6263 8.25644 16.5651 8.1532 16.5383L6.6416 16.1305L9.46979 10.3721L10.6819 11.1368C10.9381 11.2974 11.1267 11.4338 11.3332 11.5855L11.3765 11.6173C11.5817 11.769 11.7831 11.9245 11.9806 12.0851C12.4101 12.4318 12.79 12.7708 13.143 13.1213C13.1698 13.1481 13.1953 13.1723 13.222 13.199C13.3406 13.0678 13.4565 12.9505 13.5725 12.8243C13.4247 12.3846 13.245 11.978 13.0257 11.6518C13.0257 11.6518 12.7148 11.2273 11.9768 10.9444C11.9768 10.9444 11.9144 10.9253 11.8188 10.8934C11.1624 10.5862 10.5391 10.3887 10.5391 10.3887C10.4053 10.3403 10.288 10.2931 10.1823 10.2472C9.73617 10.0267 9.36528 9.77819 9.28881 9.54367C9.28881 9.54367 9.54627 12.0354 7.36809 12.094L7.06475 12.08C5.09049 11.9041 4.95922 9.53857 4.95922 9.53857C4.75274 10.1873 2.26995 10.9418 2.26995 10.9418C1.53199 11.2248 1.21973 11.6505 1.21973 11.6505C0.128728 13.2691 0 16.871 0 16.871C0.0140199 17.6943 0.369615 17.7797 0.369615 17.7797C2.87917 18.9 6.81621 19.0976 6.81621 19.0976C7.02906 19.1027 7.22661 19.0912 7.42417 19.0797L7.42926 19.1001C7.42926 19.1001 9.35126 19.002 11.3663 18.561L11.1203 18.2385C10.9202 17.9747 10.4729 17.6344 9.92098 17.326Z" fill="#000"/>
<path d="M17.604 11.1199C16.889 11.6247 16.2224 12.1956 15.5877 12.796C14.9517 13.4001 14.3488 14.0361 13.7689 14.6925C13.5535 14.9372 13.3445 15.1844 13.1367 15.433C13.1342 15.4291 13.1316 15.4253 13.1304 15.4215C12.8245 15.0136 12.4931 14.6504 12.149 14.3101C11.8049 13.9711 11.448 13.6575 11.0809 13.3593C10.8961 13.2115 10.71 13.0662 10.5201 12.9234C10.3226 12.7807 10.1492 12.6519 9.90707 12.499L8.40057 15.5642C8.53822 15.6012 8.73833 15.679 8.90784 15.7452C9.08755 15.8141 9.26343 15.888 9.43932 15.9657C9.79109 16.1212 10.1339 16.2907 10.4615 16.473C11.109 16.835 11.7118 17.2759 12.0559 17.7259L13.2145 19.2451L13.8811 17.7998C14.2163 17.0758 14.6178 16.3188 15.0294 15.5974C15.4449 14.8709 15.8885 14.1584 16.369 13.4715C16.8495 12.7845 17.3644 12.1205 17.9405 11.5087C18.5166 10.9007 19.1525 10.3348 19.9109 9.93335C19.0875 10.1781 18.3177 10.6203 17.604 11.1199Z" fill="#000"/>
</svg>
