<svg width="18" height="16" viewBox="0 0 18 16" fill="none" xmlns="http://www.w3.org/2000/svg">
<path d="M16.25 6.50136H3.40167L7.33417 1.77802C7.51805 1.55679 7.60652 1.27157 7.58011 0.985106C7.55369 0.698644 7.41457 0.434407 7.19333 0.250523C6.9721 0.0666398 6.68688 -0.0218272 6.40042 0.00458413C6.11395 0.0309955 5.84972 0.170122 5.66583 0.391357L0.249167 6.89136C0.212724 6.94306 0.180136 6.99737 0.151667 7.05386C0.151667 7.10802 0.151667 7.14052 0.0758335 7.19469C0.0267298 7.3189 0.00101955 7.45113 0 7.58469C0.00101955 7.71825 0.0267298 7.85048 0.0758335 7.97469C0.0758335 8.02886 0.0758332 8.06136 0.151667 8.11552C0.180136 8.17201 0.212724 8.22632 0.249167 8.27802L5.66583 14.778C5.76769 14.9003 5.89524 14.9987 6.03942 15.0661C6.18359 15.1335 6.34085 15.1683 6.5 15.168C6.75312 15.1685 6.99843 15.0804 7.19333 14.9189C7.30303 14.8279 7.39371 14.7162 7.46017 14.5902C7.52664 14.4641 7.56758 14.3262 7.58067 14.1843C7.59375 14.0424 7.57871 13.8994 7.53641 13.7633C7.49411 13.6272 7.42539 13.5008 7.33417 13.3914L3.40167 8.66802H16.25C16.5373 8.66802 16.8129 8.55389 17.016 8.35072C17.2192 8.14756 17.3333 7.87201 17.3333 7.58469C17.3333 7.29737 17.2192 7.02182 17.016 6.81866C16.8129 6.61549 16.5373 6.50136 16.25 6.50136Z" fill="#9B9B9B"/>
</svg>
