<svg width="11" height="11" viewBox="0 0 11 11" fill="none" xmlns="http://www.w3.org/2000/svg">
<path d="M6.28136 5.34153L10.4765 1.14619C10.5402 1.08469 10.591 1.01113 10.6259 0.929795C10.6609 0.848459 10.6793 0.760979 10.68 0.67246C10.6808 0.58394 10.6639 0.496154 10.6304 0.414223C10.5969 0.332292 10.5474 0.257857 10.4848 0.195262C10.4222 0.132667 10.3478 0.0831648 10.2658 0.0496442C10.1839 0.0161236 10.0961 -0.00074404 10.0076 2.51714e-05C9.91907 0.000794382 9.83159 0.0191852 9.75025 0.0541246C9.66892 0.0890639 9.59536 0.139852 9.53386 0.203526L5.33852 4.39869L1.14336 0.203526C1.01788 0.0808007 0.849061 0.0125114 0.673545 0.013478C0.498029 0.0144446 0.329975 0.084589 0.205854 0.208688C0.0817321 0.332788 0.0115584 0.500829 0.0105608 0.676345C0.00956314 0.851861 0.0778223 1.02069 0.200525 1.14619L4.39586 5.34153L0.200525 9.53686C0.137487 9.59851 0.0873058 9.67206 0.0528871 9.75324C0.0184683 9.83442 0.000495703 9.92162 1.01103e-05 10.0098C-0.000475482 10.098 0.0165356 10.1854 0.0500581 10.2669C0.0835807 10.3485 0.132949 10.4226 0.195304 10.4849C0.257659 10.5473 0.331762 10.5966 0.413323 10.6301C0.494884 10.6636 0.582282 10.6806 0.670456 10.6801C0.75863 10.6796 0.845829 10.6616 0.927004 10.6272C1.00818 10.5928 1.08172 10.5426 1.14336 10.4795L5.33852 6.28436L9.53386 10.4795C9.66402 10.6097 9.83469 10.6749 10.0052 10.6749C10.1757 10.6749 10.3465 10.6097 10.4765 10.4795C10.6015 10.3545 10.6717 10.185 10.6717 10.0082C10.6717 9.83142 10.6015 9.66188 10.4765 9.53686L6.28136 5.34153Z" fill="black"/>
</svg>
