<svg width="14" height="14" viewBox="0 0 14 14" fill="none" xmlns="http://www.w3.org/2000/svg">
<path d="M11.6856 0.411133C11.4275 0.152995 11.0163 0.152995 10.7581 0.411133L5.77501 5.39424C5.69627 5.46863 5.64377 5.56487 5.60876 5.66987L4.79502 8.38675C4.72501 8.61864 4.79064 8.86799 4.96127 9.03862C5.08376 9.16551 5.25438 9.23112 5.42502 9.23112C5.48625 9.23112 5.55188 9.22236 5.61314 9.20487L8.33 8.39112C8.43502 8.35612 8.53125 8.30362 8.60562 8.22487L13.5888 3.24174C13.7113 3.11926 13.7813 2.95301 13.7813 2.778C13.7813 2.60302 13.7113 2.43676 13.5888 2.31425L11.6856 0.411133Z" fill="#A6A6A6"/>
<path d="M13.125 6.34375C12.7625 6.34375 12.4688 6.6377 12.4688 7V11.375C12.4688 11.9783 11.9781 12.4688 11.375 12.4688H2.625C2.02194 12.4688 1.53125 11.9783 1.53125 11.375V2.625C1.53125 2.02173 2.02194 1.53125 2.625 1.53125H7C7.36252 1.53125 7.65625 1.2373 7.65625 0.875C7.65625 0.512698 7.36252 0.21875 7 0.21875H2.625C1.29819 0.21875 0.21875 1.2984 0.21875 2.625V11.375C0.21875 12.7016 1.29819 13.7812 2.625 13.7812H11.375C12.7018 13.7812 13.7812 12.7016 13.7812 11.375V7C13.7812 6.6377 13.4875 6.34375 13.125 6.34375Z" fill="#A6A6A6"/>
</svg>
