<svg width="20" height="12" viewBox="0 0 20 12" fill="none" xmlns="http://www.w3.org/2000/svg">
<path d="M6.49098 6.00003L0.97998 9.58823V2.41183L6.49098 6.00003ZM13.509 6.00003L19.02 9.58823V2.41183L13.509 6.00003ZM12.7038 6.52583L10.2398 8.12963C10.1672 8.17583 10.0836 8.20003 9.99998 8.20003C9.91638 8.20003 9.83278 8.17583 9.76018 8.12963L7.29618 6.52583L1.34518 10.4L0.999781 10.6244C1.10758 11.2448 1.64878 11.72 2.29998 11.72H17.7C18.3512 11.72 18.8924 11.247 19.0002 10.6244L18.6526 10.4L12.7038 6.52583ZM9.99998 7.23423L18.6526 1.60003L19.0002 1.37563C18.8924 0.753029 18.3512 0.280029 17.7 0.280029H2.29998C1.64878 0.280029 1.10758 0.755229 0.999781 1.37563L1.34518 1.60003L9.99998 7.23423Z" fill="#C0C0C0"/>
</svg>
