<svg width="10" height="17" viewBox="0 0 10 17" fill="none" xmlns="http://www.w3.org/2000/svg">
<path d="M9.20543 4.76166C9.2059 4.01808 8.99807 3.28843 8.60429 2.65114C8.2105 2.01385 7.64565 1.49301 6.97044 1.14461C6.29523 0.796214 5.5352 0.633426 4.77203 0.673745C4.00887 0.714063 3.27142 0.955964 2.63896 1.37345C2.0065 1.79093 1.50294 2.36821 1.1824 3.04324C0.861857 3.71827 0.736461 4.46552 0.819686 5.20469C0.902912 5.94385 1.19161 6.64697 1.65475 7.23848C2.1179 7.82999 2.73797 8.28752 3.44833 8.56189V14.5333C3.44833 14.5537 3.45246 14.5739 3.46047 14.5927C3.46849 14.6115 3.48024 14.6286 3.49505 14.643L5.22728 16.3283C5.25719 16.3574 5.29774 16.3738 5.34003 16.3738C5.38231 16.3738 5.42286 16.3574 5.45277 16.3283L7.12343 14.7029C7.15254 14.6746 7.16926 14.6364 7.17009 14.5964C7.17093 14.5563 7.15581 14.5175 7.1279 14.4881L5.90055 13.1927C5.88598 13.1773 5.87475 13.1592 5.86755 13.1395C5.86035 13.1198 5.85732 13.0989 5.85865 13.078C5.85997 13.0572 5.86562 13.0368 5.87525 13.0181C5.88489 12.9994 5.89831 12.9828 5.91471 12.9692L7.11609 11.9789C7.14727 11.9532 7.16712 11.9168 7.17152 11.8773C7.17593 11.8377 7.16456 11.798 7.13976 11.7664L5.82061 10.0848C5.7994 10.0578 5.78791 10.0247 5.78792 9.99074V8.77883C6.74896 8.60062 7.61605 8.10195 8.23985 7.36869C8.86365 6.63544 9.20511 5.7135 9.20543 4.76166ZM5.00006 4.76166C4.75053 4.76167 4.5066 4.68968 4.29913 4.55481C4.09165 4.41994 3.92994 4.22824 3.83444 4.00396C3.73895 3.77967 3.71396 3.53287 3.76264 3.29477C3.81131 3.05667 3.93147 2.83795 4.10791 2.66629C4.28435 2.49462 4.50915 2.37772 4.75388 2.33035C4.99861 2.28299 5.25229 2.30729 5.48282 2.40019C5.71336 2.49309 5.9104 2.65041 6.04903 2.85227C6.18766 3.05412 6.26166 3.29143 6.26166 3.5342C6.26167 3.69539 6.22904 3.855 6.16564 4.00393C6.10224 4.15285 6.00931 4.28816 5.89216 4.40214C5.77501 4.51612 5.63593 4.60654 5.48286 4.66822C5.32979 4.72991 5.16574 4.76166 5.00006 4.76166Z" fill="#C0C0C0"/>
</svg>
