<svg width="14" height="14" viewBox="0 0 14 14" fill="none" xmlns="http://www.w3.org/2000/svg">
<path d="M12.4225 9.44507L10.5175 9.22757C10.06 9.17507 9.61003 9.33257 9.28753 9.65507L7.90753 11.0351C5.78503 9.95507 4.04503 8.22257 2.96503 6.09257L4.35253 4.70507C4.67503 4.38257 4.83253 3.93257 4.78003 3.47507L4.56253 1.58507C4.47253 0.827569 3.83503 0.257568 3.07003 0.257568H1.77253C0.925031 0.257568 0.22003 0.962568 0.27253 1.81007C0.67003 8.21507 5.79253 13.3301 12.19 13.7276C13.0375 13.7801 13.7425 13.0751 13.7425 12.2276V10.9301C13.75 10.1726 13.18 9.53507 12.4225 9.44507Z" fill="#C0C0C0"/>
</svg>
