<svg width="92" height="92" viewBox="0 0 92 92" fill="none" xmlns="http://www.w3.org/2000/svg">
<path d="M46 0.166748C20.6771 0.166748 0.166664 20.6772 0.166664 46.0001C0.166664 71.323 20.6771 91.8334 46 91.8334C71.3229 91.8334 91.8333 71.323 91.8333 46.0001C91.8333 20.6772 71.3229 0.166748 46 0.166748ZM46 13.9167C53.5854 13.9167 59.75 20.0813 59.75 27.6667C59.75 35.2751 53.5854 41.4167 46 41.4167C38.4146 41.4167 32.25 35.2751 32.25 27.6667C32.25 20.0813 38.4146 13.9167 46 13.9167ZM46 79.0001C34.5187 79.0001 24.4354 73.1334 18.5 64.2417C18.6146 55.1438 36.8562 50.1251 46 50.1251C55.1437 50.1251 73.3625 55.1438 73.5 64.2417C67.5646 73.1334 57.4812 79.0001 46 79.0001Z" fill="#A6A6A6"/>
</svg>
