<svg width="17" height="19" viewBox="0 0 17 19" fill="none" xmlns="http://www.w3.org/2000/svg">
<path d="M9.12502 0.750314C9.60627 0.741564 10.0621 0.915689 10.4025 1.24906C10.7446 1.57194 10.9275 2.01906 10.9275 2.49156C10.9275 3.45406 11.7238 4.23369 12.7134 4.23369C13.0188 4.23369 13.325 4.14531 13.5971 3.99656C14.445 3.54069 15.5038 3.83031 15.985 4.64406L16.5809 5.66781C16.7296 5.93031 16.8163 6.22781 16.8163 6.53406C16.8163 7.15531 16.4759 7.73369 15.9246 8.03906C15.6525 8.18781 15.425 8.41531 15.2684 8.67869C14.8038 9.50031 15.0934 10.5407 15.9246 11.0149C16.7638 11.4953 17.0525 12.5462 16.5809 13.3766L15.985 14.3662C15.67 14.9078 15.0838 15.2412 14.4538 15.2412C14.1388 15.2412 13.8238 15.1616 13.5621 15.0041C13.2813 14.8553 12.9759 14.7678 12.6688 14.7678C12.1963 14.7678 11.7413 14.9524 11.4096 15.2841C11.0675 15.6087 10.8838 16.0541 10.8838 16.5178C10.8838 17.4716 10.0884 18.2503 9.09877 18.2503H7.90089C7.42752 18.2503 6.98127 18.0578 6.65752 17.7341C6.32502 17.4016 6.15089 16.9641 6.15089 16.5091C6.15089 15.5466 5.36252 14.7678 4.37464 14.7678C4.05002 14.7678 3.73502 14.8553 3.46377 15.0224C3.05252 15.2491 2.56252 15.3103 2.10752 15.1966C1.65252 15.0741 1.25877 14.7766 1.02252 14.3828L0.46339 13.3941C0.200015 12.9837 0.121265 12.4928 0.24464 12.0291C0.366265 11.5653 0.68214 11.1716 1.11002 10.9353C1.38214 10.7866 1.60877 10.5678 1.76627 10.2966C2.22214 9.47406 1.93252 8.44156 1.11002 7.96031C0.278765 7.48781 -0.00998473 6.44656 0.46339 5.62406L1.02252 4.64406C1.25877 4.23369 1.65252 3.93531 2.11627 3.81281C2.58089 3.69031 3.07002 3.75944 3.48127 3.99656C3.76127 4.14531 4.06752 4.22406 4.37464 4.22406C4.84714 4.22406 5.30127 4.04031 5.63377 3.71656C5.96627 3.39281 6.15089 2.94656 6.15089 2.49156C6.15089 1.52906 6.94627 0.750314 7.93502 0.750314H9.12502ZM9.47589 7.29619C8.55714 6.91906 7.49752 7.12031 6.78877 7.81156C6.08877 8.49406 5.87002 9.53531 6.25502 10.4287C6.63214 11.3291 7.52377 11.9153 8.52127 11.9153H8.53089C9.18714 11.9241 9.79964 11.6712 10.2625 11.2153C10.7263 10.7691 10.9888 10.1566 10.9888 9.51781C10.9975 8.54656 10.3938 7.66281 9.47589 7.29619Z" fill="#000"/>
</svg>
