<svg width="30" height="30" viewBox="0 0 30 30" fill="none" xmlns="http://www.w3.org/2000/svg">
<path d="M5.37505 20.9621L5.37261 21.1559L5.48018 21.317C7.53289 24.3921 11.0236 26.425 15 26.425C18.9764 26.425 22.4671 24.3921 24.5198 21.317L24.6279 21.1551L24.6249 20.9606C24.6103 19.991 24.1111 19.1798 23.4226 18.5356C22.7365 17.8937 21.8199 17.3743 20.8466 16.9669C18.9027 16.1533 16.5821 15.725 15 15.725C13.418 15.725 11.0956 16.1532 9.15067 16.9669C8.17694 17.3742 7.25996 17.8936 6.5741 18.5357C5.88574 19.1802 5.38727 19.9919 5.37505 20.9621ZM0.625 15C0.625 7.05768 7.05768 0.625 15 0.625C22.9423 0.625 29.375 7.05768 29.375 15C29.375 22.9423 22.9423 29.375 15 29.375C7.05768 29.375 0.625 22.9423 0.625 15ZM20.125 9C20.125 6.17232 17.8277 3.875 15 3.875C12.1723 3.875 9.875 6.17232 9.875 9C9.875 11.8359 12.173 14.125 15 14.125C17.827 14.125 20.125 11.8359 20.125 9Z" fill="#A6A6A6" stroke="#95A5FF" stroke-width="1.25"/>
</svg>
