<svg width="16" height="16" viewBox="0 0 16 16" fill="none" xmlns="http://www.w3.org/2000/svg">
<path d="M8 6.47998C9.65685 6.47998 11 5.13683 11 3.47998C11 1.82313 9.65685 0.47998 8 0.47998C6.34315 0.47998 5 1.82313 5 3.47998C5 5.13683 6.34315 6.47998 8 6.47998Z" fill="#C0C0C0"/>
<path d="M15.43 13.42C15.1188 12.0032 14.4052 10.7063 13.375 9.68503C13.1249 9.43411 12.854 9.20494 12.565 9.00003C11.249 8.01292 9.64499 7.48586 8 7.50003C5.98857 7.48974 4.05466 8.27517 2.62 9.68503C1.58975 10.7063 0.876191 12.0032 0.565 13.42C0.510911 13.6706 0.513833 13.9301 0.57355 14.1793C0.633267 14.4286 0.748252 14.6612 0.910001 14.86C1.07751 15.0631 1.28845 15.2261 1.52729 15.3368C1.76612 15.4476 2.02676 15.5034 2.29 15.5H13.71C13.974 15.5002 14.2347 15.441 14.4727 15.3267C14.7107 15.2125 14.92 15.0461 15.085 14.84C15.2438 14.6435 15.3572 14.4143 15.4168 14.1687C15.4765 13.9232 15.481 13.6675 15.43 13.42Z" fill="#C0C0C0"/>
</svg>
